<mxfile host="app.diagrams.net" agent="Mozilla/5.0 (Windows NT 10.0; Win64; x64) AppleWebKit/537.36 (KHTML, like Gecko) Chrome/131.0.0.0 Safari/537.36" version="26.0.5">
  <diagram name="Page-1" id="TR5sEHsPR-A56FJRqs4F">
    <mxGraphModel dx="1434" dy="738" grid="1" gridSize="10" guides="1" tooltips="1" connect="1" arrows="1" fold="1" page="1" pageScale="1" pageWidth="850" pageHeight="1100" math="0" shadow="0">
      <root>
        <mxCell id="0" />
        <mxCell id="1" parent="0" />
        <mxCell id="nJXbT9FgGnLmUq8w1Ts0-6" value="" style="shape=actor;whiteSpace=wrap;html=1;" vertex="1" parent="1">
          <mxGeometry x="40" y="230" width="40" height="60" as="geometry" />
        </mxCell>
        <mxCell id="nJXbT9FgGnLmUq8w1Ts0-7" value="User Agent" style="rounded=1;whiteSpace=wrap;html=1;fillColor=#dae8fc;strokeColor=#6c8ebf;" vertex="1" parent="1">
          <mxGeometry x="140" y="220" width="80" height="80" as="geometry" />
        </mxCell>
        <mxCell id="nJXbT9FgGnLmUq8w1Ts0-8" value="API" style="rounded=1;whiteSpace=wrap;html=1;fillColor=#dae8fc;strokeColor=#6c8ebf;" vertex="1" parent="1">
          <mxGeometry x="340" y="220" width="80" height="80" as="geometry" />
        </mxCell>
        <mxCell id="nJXbT9FgGnLmUq8w1Ts0-9" value="LLM" style="rounded=1;whiteSpace=wrap;html=1;" vertex="1" parent="1">
          <mxGeometry x="590" y="220" width="80" height="80" as="geometry" />
        </mxCell>
        <mxCell id="nJXbT9FgGnLmUq8w1Ts0-10" value="Service" style="rounded=1;whiteSpace=wrap;html=1;fillColor=#dae8fc;strokeColor=#6c8ebf;" vertex="1" parent="1">
          <mxGeometry x="465" y="220" width="80" height="80" as="geometry" />
        </mxCell>
        <mxCell id="nJXbT9FgGnLmUq8w1Ts0-11" value="" style="endArrow=classic;html=1;rounded=0;" edge="1" parent="1" source="nJXbT9FgGnLmUq8w1Ts0-6" target="nJXbT9FgGnLmUq8w1Ts0-7">
          <mxGeometry width="50" height="50" relative="1" as="geometry">
            <mxPoint x="350" y="320" as="sourcePoint" />
            <mxPoint x="400" y="270" as="targetPoint" />
          </mxGeometry>
        </mxCell>
        <mxCell id="nJXbT9FgGnLmUq8w1Ts0-12" value="" style="endArrow=classic;html=1;rounded=0;" edge="1" parent="1" source="nJXbT9FgGnLmUq8w1Ts0-7" target="nJXbT9FgGnLmUq8w1Ts0-8">
          <mxGeometry width="50" height="50" relative="1" as="geometry">
            <mxPoint x="190" y="270" as="sourcePoint" />
            <mxPoint x="230" y="270" as="targetPoint" />
          </mxGeometry>
        </mxCell>
        <mxCell id="nJXbT9FgGnLmUq8w1Ts0-13" value="" style="endArrow=classic;html=1;rounded=0;" edge="1" parent="1" source="nJXbT9FgGnLmUq8w1Ts0-8" target="nJXbT9FgGnLmUq8w1Ts0-10">
          <mxGeometry width="50" height="50" relative="1" as="geometry">
            <mxPoint x="310" y="270" as="sourcePoint" />
            <mxPoint x="350" y="270" as="targetPoint" />
          </mxGeometry>
        </mxCell>
        <mxCell id="nJXbT9FgGnLmUq8w1Ts0-14" value="" style="endArrow=classic;html=1;rounded=0;" edge="1" parent="1" source="nJXbT9FgGnLmUq8w1Ts0-10" target="nJXbT9FgGnLmUq8w1Ts0-9">
          <mxGeometry width="50" height="50" relative="1" as="geometry">
            <mxPoint x="430" y="270" as="sourcePoint" />
            <mxPoint x="475" y="270" as="targetPoint" />
          </mxGeometry>
        </mxCell>
        <mxCell id="nJXbT9FgGnLmUq8w1Ts0-15" value="Memory" style="rounded=1;whiteSpace=wrap;html=1;dashed=1;" vertex="1" parent="1">
          <mxGeometry x="140" y="330" width="80" height="60" as="geometry" />
        </mxCell>
        <mxCell id="nJXbT9FgGnLmUq8w1Ts0-16" value="" style="endArrow=classic;html=1;rounded=0;entryX=0.5;entryY=0;entryDx=0;entryDy=0;strokeColor=none;" edge="1" parent="1" source="nJXbT9FgGnLmUq8w1Ts0-7" target="nJXbT9FgGnLmUq8w1Ts0-15">
          <mxGeometry width="50" height="50" relative="1" as="geometry">
            <mxPoint x="110" y="270" as="sourcePoint" />
            <mxPoint x="150" y="270" as="targetPoint" />
          </mxGeometry>
        </mxCell>
        <mxCell id="nJXbT9FgGnLmUq8w1Ts0-17" value="" style="endArrow=classic;html=1;rounded=0;dashed=1;" edge="1" parent="1" source="nJXbT9FgGnLmUq8w1Ts0-7" target="nJXbT9FgGnLmUq8w1Ts0-15">
          <mxGeometry width="50" height="50" relative="1" as="geometry">
            <mxPoint x="110" y="270" as="sourcePoint" />
            <mxPoint x="150" y="270" as="targetPoint" />
          </mxGeometry>
        </mxCell>
        <mxCell id="nJXbT9FgGnLmUq8w1Ts0-18" value="Auth" style="rounded=1;whiteSpace=wrap;html=1;dashed=1;" vertex="1" parent="1">
          <mxGeometry x="340" y="330" width="80" height="60" as="geometry" />
        </mxCell>
        <mxCell id="nJXbT9FgGnLmUq8w1Ts0-19" value="" style="endArrow=classic;html=1;rounded=0;dashed=1;" edge="1" parent="1" source="nJXbT9FgGnLmUq8w1Ts0-8" target="nJXbT9FgGnLmUq8w1Ts0-18">
          <mxGeometry width="50" height="50" relative="1" as="geometry">
            <mxPoint x="376.66666666666674" y="280" as="sourcePoint" />
            <mxPoint x="350" y="270" as="targetPoint" />
          </mxGeometry>
        </mxCell>
        <mxCell id="nJXbT9FgGnLmUq8w1Ts0-20" value="Quality" style="rounded=1;whiteSpace=wrap;html=1;dashed=1;" vertex="1" parent="1">
          <mxGeometry x="465" y="330" width="80" height="60" as="geometry" />
        </mxCell>
        <mxCell id="nJXbT9FgGnLmUq8w1Ts0-21" value="" style="endArrow=classic;html=1;rounded=0;dashed=1;" edge="1" parent="1" source="nJXbT9FgGnLmUq8w1Ts0-10" target="nJXbT9FgGnLmUq8w1Ts0-20">
          <mxGeometry width="50" height="50" relative="1" as="geometry">
            <mxPoint x="470.00142857142845" y="270" as="sourcePoint" />
            <mxPoint x="486.43" y="280" as="targetPoint" />
          </mxGeometry>
        </mxCell>
        <mxCell id="nJXbT9FgGnLmUq8w1Ts0-22" value="prompt + context" style="text;html=1;align=center;verticalAlign=middle;whiteSpace=wrap;rounded=0;" vertex="1" parent="1">
          <mxGeometry x="200" y="230" width="150" height="30" as="geometry" />
        </mxCell>
      </root>
    </mxGraphModel>
  </diagram>
</mxfile>
